<svg id="圖層_1" data-name="圖層 1" xmlns="http://www.w3.org/2000/svg" xmlns:xlink="http://www.w3.org/1999/xlink" viewBox="0 0 2500 2500"><defs><style>.cls-1{fill:url(#未命名漸層_72);}.cls-2{fill:#fff;}</style><linearGradient id="未命名漸層_72" x1="-185.04" y1="2078.52" x2="2685.04" y2="421.47" gradientUnits="userSpaceOnUse"><stop offset="0" stop-color="#d9a524"/><stop offset="1" stop-color="#d2ab2d"/></linearGradient></defs><path class="cls-1" d="M2362,2500a138,138,0,0,0,138-138V138A138,138,0,0,0,2362,0H138A138,138,0,0,0,0,138V2362a138,138,0,0,0,138,138H2362Z"/><path class="cls-2" d="M1725,2500V1531.87h325l48.65-377.31H1725V913.67c0-109.23,30.33-183.67,187-183.67l199.79-.1V392.45c-34.55-4.59-153.16-14.87-291.13-14.87-288.06,0-485.27,175.83-485.27,498.74v278.24H1009.53v377.31h325.79V2500H1725Z"/></svg>